<svg width="28" height="28" viewBox="0 0 28 28" fill="none" xmlns="http://www.w3.org/2000/svg">
<path d="M16.205 3.36L10.7333 2.49667C6.17164 1.785 4.05997 3.325 3.33664 7.88667L2.4733 13.3583C2.00664 16.345 2.49664 18.2817 4.1883 19.46C5.07497 20.09 6.2883 20.51 7.8633 20.755L13.335 21.6183C17.8966 22.33 20.0083 20.79 20.7316 16.2283L21.5833 10.7567C21.7233 9.85833 21.7816 9.05333 21.735 8.34167C21.5833 5.425 19.8683 3.93167 16.205 3.36ZM9.6133 10.9083C8.2483 10.9083 7.13997 9.8 7.13997 8.44667C7.13997 7.08167 8.2483 5.97333 9.6133 5.97333C10.9666 5.97333 12.075 7.08167 12.075 8.44667C12.075 9.8 10.9666 10.9083 9.6133 10.9083Z" fill="#8B5CF6"/>
<path d="M23.9167 15.715L22.1667 20.9767C20.7084 25.3633 18.375 26.53 13.9884 25.0717L8.7267 23.3217C7.0817 22.7733 5.8917 22.0967 5.1217 21.245C5.8567 21.5367 6.70837 21.7583 7.6767 21.91L13.16 22.7733C13.9067 22.89 14.6067 22.9483 15.26 22.9483C19.11 22.9483 21.175 20.8717 21.8867 16.4033L22.7384 10.9317C22.855 10.255 22.9017 9.66 22.9017 9.11167C24.675 10.57 24.9317 12.6467 23.9167 15.715Z" fill="#8B5CF6"/>
</svg>
