<svg width="83" height="32" viewBox="0 0 83 32" fill="none" xmlns="http://www.w3.org/2000/svg">
<path d="M22.9868 14.1586C22.5586 14.5893 22.2308 15.1091 22.0266 15.681C21.8223 16.2529 21.7468 16.8628 21.8052 17.4672L21.7848 17.4469C21.8449 18.1585 21.7489 18.8744 21.5037 19.5451C21.2584 20.2156 20.8698 20.8246 20.365 21.3296C19.8601 21.8344 19.2511 22.2231 18.5804 22.4682C17.9099 22.7135 17.1938 22.8095 16.4824 22.7494L16.5027 22.7697C15.6516 22.6905 14.7968 22.8757 14.0548 23.3001C13.3128 23.7245 12.7198 24.3674 12.3566 25.1412C11.9934 25.915 11.8776 26.7818 12.0252 27.6239C12.1728 28.4658 12.5764 29.2417 13.1811 29.8458C13.7858 30.45 14.5621 30.8529 15.4041 30.9996C16.2463 31.1465 17.113 31.0299 17.8865 30.6661C18.6599 30.3021 19.3023 29.7086 19.726 28.9662C20.1497 28.2238 20.3342 27.3689 20.2542 26.5178L20.2757 26.5382C20.2156 25.8267 20.3115 25.1107 20.5567 24.44C20.8019 23.7695 21.1907 23.1605 21.6955 22.6555C22.2004 22.1507 22.8094 21.762 23.48 21.5169C24.1506 21.2716 24.8666 21.1756 25.5781 21.2357L25.5567 21.2154C26.2518 21.2778 26.9517 21.1638 27.5911 20.8839C28.2305 20.604 28.789 20.1672 29.2146 19.614C29.6403 19.0608 29.9195 18.409 30.0262 17.7193C30.1329 17.0294 30.0638 16.3238 29.8252 15.6677C29.5866 15.0118 29.1863 14.4266 28.6613 13.9665C28.1364 13.5064 27.5038 13.1863 26.8222 13.0358C26.1406 12.8854 25.432 12.9093 24.7621 13.1055C24.0922 13.3018 23.4828 13.664 22.9902 14.1586H22.9868Z" fill="#262626"/>
<path d="M14.6535 20.1062L14.632 20.0859C15.2367 20.1467 15.8474 20.0725 16.42 19.8685C16.9925 19.6645 17.5126 19.3359 17.9425 18.9063C18.3723 18.4767 18.7015 17.9568 18.9059 17.3845C19.1103 16.8121 19.185 16.2015 19.1246 15.5967L19.146 15.617C19.0859 14.9055 19.1819 14.1895 19.4271 13.5189C19.6723 12.8483 20.061 12.2393 20.5659 11.7344C21.0708 11.2296 21.6798 10.8409 22.3503 10.5957C23.021 10.3504 23.737 10.2545 24.4485 10.3146L24.427 10.2942C25.2782 10.3742 26.1332 10.1896 26.8756 9.76567C27.6181 9.34177 28.2116 8.69915 28.5754 7.9255C28.9391 7.15187 29.0554 6.28484 28.9083 5.44269C28.7612 4.60054 28.3579 3.82428 27.7534 3.21977C27.1489 2.61527 26.3726 2.21195 25.5305 2.06485C24.6883 1.91774 23.8213 2.03399 23.0477 2.39775C22.274 2.7615 21.6314 3.35507 21.2075 4.09747C20.7835 4.83986 20.599 5.69496 20.6789 6.54611L20.6586 6.52465C20.7188 7.23619 20.623 7.95231 20.3779 8.62299C20.1328 9.29368 19.7441 9.90276 19.2392 10.4078C18.7343 10.9126 18.1252 11.3013 17.4545 11.5464C16.7837 11.7915 16.0677 11.8873 15.3561 11.8271L15.3765 11.8486C14.7718 11.7877 14.161 11.8619 13.5885 12.0659C13.016 12.2698 12.4959 12.5986 12.066 13.0282C11.636 13.4578 11.307 13.9776 11.1025 14.55C10.8981 15.1224 10.8235 15.7329 10.8839 16.3377L10.8636 16.3174C10.9235 17.0289 10.8273 17.7448 10.5821 18.4154C10.3367 19.0858 9.94813 19.6948 9.4433 20.1996C8.93842 20.7044 8.3295 21.093 7.659 21.3384C6.9885 21.5836 6.27255 21.6798 5.5611 21.6199L5.58143 21.6402C4.73028 21.5602 3.87518 21.7448 3.13278 22.1688C2.39039 22.5927 1.79682 23.2353 1.43307 24.0089C1.06931 24.7826 0.953045 25.6496 1.10016 26.4918C1.24727 27.3339 1.65059 28.1102 2.25509 28.7146C2.8596 29.3192 3.63586 29.7225 4.47801 29.8696C5.32016 30.0167 6.18718 29.9004 6.96083 29.5367C7.73447 29.1729 8.37708 28.5794 8.80099 27.837C9.22494 27.0945 9.40952 26.2395 9.32954 25.3883L9.35101 25.4087C9.29091 24.6971 9.38693 23.9812 9.63217 23.3105C9.8773 22.6399 10.266 22.031 10.7708 21.526C11.2758 21.0212 11.8848 20.6325 12.5553 20.3874C13.226 20.1421 13.9419 20.0461 14.6535 20.1062Z" fill="#262626"/>
<path d="M7.08273 17.839C7.51088 17.4083 7.83867 16.8885 8.04273 16.3166C8.24679 15.7446 8.32207 15.1346 8.26319 14.5303L8.28464 14.5506C8.22454 13.8389 8.32052 13.1226 8.56588 12.4519C8.81125 11.7811 9.2001 11.172 9.70527 10.667C10.2104 10.1621 10.8197 9.77355 11.4905 9.52847C12.1614 9.28339 12.8777 9.18771 13.5894 9.24812L13.5679 9.22779C14.4188 9.3075 15.2736 9.12282 16.0156 8.69894C16.7577 8.27507 17.3508 7.63262 17.7145 6.85921C18.078 6.0858 18.1941 5.21909 18.047 4.37726C17.8999 3.53543 17.4967 2.75946 16.8924 2.15518C16.2882 1.55089 15.5121 1.1477 14.6703 1.0006C13.8285 0.853493 12.9618 0.969641 12.1884 1.33318C11.415 1.69672 10.7725 2.28996 10.3487 3.03202C9.92476 3.77407 9.74007 4.62882 9.81982 5.47968L9.79949 5.45934C9.85958 6.17084 9.76356 6.88688 9.51832 7.55747C9.27308 8.22807 8.88451 8.83706 8.37961 9.34196C7.87472 9.84686 7.26571 10.2355 6.59512 10.4807C5.92453 10.7259 5.2085 10.8219 4.497 10.7618L4.51734 10.7822C3.82213 10.7198 3.12242 10.834 2.48308 11.114C1.84373 11.3941 1.28541 11.831 0.859866 12.3843C0.434323 12.9375 0.155327 13.5893 0.048713 14.279C-0.0578902 14.9689 0.0113448 15.6745 0.250002 16.3303C0.488659 16.9863 0.889033 17.5713 1.41401 18.0313C1.93898 18.4914 2.57157 18.8115 3.25317 18.9619C3.93475 19.1123 4.64329 19.0882 5.31313 18.892C5.98295 18.6957 6.59239 18.3335 7.08497 17.839H7.08273Z" fill="#262626"/>
<path d="M43.2686 12.1667V14.7481H35.8444V12.1667H43.2686ZM37.5322 9.23235H40.9409V20.7052C40.9409 21.117 41.0329 21.4222 41.2167 21.6208C41.4006 21.812 41.6948 21.9076 42.0993 21.9076C42.2316 21.9076 42.3787 21.8966 42.5405 21.8745C42.7023 21.8524 42.842 21.8267 42.9597 21.7973L43.5003 24.3566C43.1252 24.4669 42.7611 24.5478 42.4081 24.5993C42.0625 24.6508 41.7205 24.6765 41.3822 24.6765C40.154 24.6765 39.2053 24.3713 38.5361 23.7609C37.8668 23.1431 37.5322 22.2753 37.5322 21.1574V9.23235ZM44.7579 24.5V12.1667H48.1666V24.5H44.7579ZM46.4567 10.5892C45.9493 10.5892 45.5154 10.4201 45.155 10.0818C44.7946 9.74348 44.6144 9.33531 44.6144 8.85728C44.6144 8.37924 44.7946 7.97475 45.155 7.64381C45.5154 7.30551 45.9493 7.13636 46.4567 7.13636C46.9715 7.13636 47.4091 7.30551 47.7695 7.64381C48.1298 7.97475 48.31 8.37924 48.31 8.85728C48.31 9.33531 48.1298 9.74348 47.7695 10.0818C47.4091 10.4201 46.9715 10.5892 46.4567 10.5892ZM53.6934 24.7317C52.9138 24.7317 52.2115 24.5956 51.5864 24.3235C50.9686 24.044 50.4832 23.6322 50.1302 23.088C49.7772 22.5437 49.6007 21.8671 49.6007 21.0582C49.6007 20.3668 49.7257 19.7932 49.9758 19.3372C50.2258 18.8739 50.5678 18.4988 51.0017 18.212C51.4356 17.9252 51.9284 17.7082 52.4799 17.5612C53.0315 17.4141 53.6162 17.3111 54.2339 17.2523C54.9473 17.1861 55.521 17.1199 55.9549 17.0537C56.3888 16.9875 56.705 16.8882 56.9036 16.7559C57.1095 16.6161 57.2125 16.4176 57.2125 16.1602V16.105C57.2125 15.5975 57.0507 15.2041 56.7271 14.9246C56.4108 14.6452 55.9622 14.5054 55.3812 14.5054C54.7708 14.5054 54.2817 14.6415 53.914 14.9136C53.5537 15.1783 53.3146 15.5166 53.197 15.9285L50.0309 15.6748C50.1927 14.9246 50.509 14.2774 50.9796 13.7332C51.4503 13.1816 52.0571 12.7588 52.7998 12.4646C53.55 12.1631 54.4178 12.0123 55.4033 12.0123C56.0872 12.0123 56.7418 12.0932 57.3669 12.255C57.992 12.4168 58.5473 12.6668 59.0327 13.0051C59.5254 13.3361 59.9152 13.7663 60.202 14.2958C60.4888 14.8253 60.6322 15.4541 60.6322 16.1822V24.5H57.3779V22.7791H57.2897C57.0911 23.1689 56.8264 23.5108 56.4954 23.805C56.1645 24.0918 55.7673 24.3198 55.304 24.489C54.8407 24.6508 54.3038 24.7317 53.6934 24.7317ZM54.6752 22.3709C55.1753 22.3709 55.6166 22.2716 55.999 22.0731C56.3888 21.8671 56.6903 21.595 56.9036 21.2567C57.1242 20.9111 57.2345 20.525 57.2345 20.0984V18.7857C57.1316 18.8519 56.9845 18.9144 56.7933 18.9732C56.6094 19.032 56.4035 19.0835 56.1755 19.1276C55.9475 19.1718 55.7195 19.2122 55.4915 19.249C55.2636 19.2784 55.0576 19.3078 54.8738 19.3372C54.4693 19.3961 54.1163 19.4917 53.8147 19.6241C53.5132 19.7491 53.2779 19.9219 53.1087 20.1425C52.9469 20.3558 52.866 20.6243 52.866 20.9478C52.866 21.4112 53.0352 21.7642 53.3735 22.0069C53.7118 22.2496 54.1457 22.3709 54.6752 22.3709ZM66.0377 17.3736V24.5H62.6289V12.1667H65.9825V14.362H66.1039C66.3833 13.6339 66.8283 13.0603 67.4387 12.6411C68.0491 12.2219 68.814 12.0123 69.7333 12.0123C70.5864 12.0123 71.3292 12.1998 71.9616 12.5749C72.6015 12.95 73.0979 13.4832 73.4509 14.1745C73.8039 14.8658 73.9804 15.6932 73.9804 16.6566V24.5H70.5717V17.2633C70.5717 16.5132 70.3768 15.9248 69.987 15.4983C69.5972 15.0644 69.0603 14.8474 68.3764 14.8474C67.9204 14.8474 67.5159 14.9504 67.1629 15.1563C66.8099 15.3549 66.5341 15.6417 66.3355 16.0167C66.137 16.3918 66.0377 16.8441 66.0377 17.3736Z" fill="#262626"/>
</svg>
