<svg width="28" height="28" viewBox="0 0 28 28" fill="none" xmlns="http://www.w3.org/2000/svg">
<path d="M20.4517 9.065C20.37 9.05333 20.2883 9.05333 20.2067 9.065C18.3983 9.00666 16.9633 7.52499 16.9633 5.70499C16.9633 3.84999 18.4683 2.33333 20.335 2.33333C22.19 2.33333 23.7067 3.83833 23.7067 5.70499C23.695 7.52499 22.26 9.00666 20.4517 9.065Z" fill="#8B5CF6"/>
<path d="M24.255 17.15C22.9483 18.025 21.1166 18.3517 19.425 18.13C19.8683 17.1733 20.1016 16.1117 20.1133 14.9917C20.1133 13.825 19.8566 12.7167 19.3666 11.7483C21.0933 11.515 22.925 11.8417 24.2433 12.7167C26.0866 13.93 26.0866 15.925 24.255 17.15Z" fill="#8B5CF6"/>
<path d="M7.51329 9.065C7.59496 9.05333 7.67663 9.05333 7.75829 9.065C9.56663 9.00666 11.0016 7.52499 11.0016 5.70499C11.0016 3.83833 9.49663 2.33333 7.62996 2.33333C5.77496 2.33333 4.26996 3.83833 4.26996 5.70499C4.26996 7.52499 5.70496 9.00666 7.51329 9.065Z" fill="#8B5CF6"/>
<path d="M7.64168 14.9917C7.64168 16.1233 7.88668 17.1967 8.33002 18.165C6.68501 18.34 4.97002 17.99 3.71001 17.1617C1.86668 15.9367 1.86668 13.9417 3.71001 12.7167C4.95835 11.8767 6.72002 11.5383 8.37668 11.725C7.89835 12.705 7.64168 13.8133 7.64168 14.9917Z" fill="#8B5CF6"/>
<path d="M14.14 18.515C14.0466 18.5033 13.9416 18.5033 13.8366 18.515C11.69 18.445 9.97498 16.6833 9.97498 14.5133C9.98664 12.2967 11.7716 10.5 14 10.5C16.2166 10.5 18.0133 12.2967 18.0133 14.5133C18.0016 16.6833 16.2983 18.445 14.14 18.515Z" fill="#8B5CF6"/>
<path d="M10.3483 20.93C8.58668 22.1084 8.58668 24.045 10.3483 25.2117C12.355 26.5534 15.645 26.5534 17.6517 25.2117C19.4134 24.0334 19.4134 22.0967 17.6517 20.93C15.6567 19.5884 12.3667 19.5884 10.3483 20.93Z" fill="#8B5CF6"/>
</svg>
